<mxfile host="app.diagrams.net" modified="2022-05-18T11:10:15.386Z" agent="5.0 (Windows NT 10.0; Win64; x64) AppleWebKit/537.36 (KHTML, like Gecko) Chrome/101.0.4951.64 Safari/537.36 Edg/101.0.1210.47" etag="nlKeVwNVNqr0V9_oTRle" version="17.4.6" type="github">
  <diagram id="C5RBs43oDa-KdzZeNtuy" name="Page-1">
    <mxGraphModel dx="1038" dy="571" grid="1" gridSize="10" guides="1" tooltips="1" connect="1" arrows="1" fold="1" page="1" pageScale="1" pageWidth="827" pageHeight="1169" math="0" shadow="0">
      <root>
        <mxCell id="WIyWlLk6GJQsqaUBKTNV-0" />
        <mxCell id="WIyWlLk6GJQsqaUBKTNV-1" parent="WIyWlLk6GJQsqaUBKTNV-0" />
        <mxCell id="bt1sG3O_FPqmAOzxdh9N-14" style="edgeStyle=orthogonalEdgeStyle;rounded=0;orthogonalLoop=1;jettySize=auto;html=1;exitX=1;exitY=0.25;exitDx=0;exitDy=0;entryX=0.908;entryY=0.718;entryDx=0;entryDy=0;entryPerimeter=0;" edge="1" parent="WIyWlLk6GJQsqaUBKTNV-1" source="WIyWlLk6GJQsqaUBKTNV-3">
          <mxGeometry relative="1" as="geometry">
            <mxPoint x="460.79999999999995" y="416.79999999999995" as="targetPoint" />
            <Array as="points">
              <mxPoint x="670" y="510" />
              <mxPoint x="670" y="435" />
              <mxPoint x="460" y="435" />
              <mxPoint x="460" y="437" />
            </Array>
          </mxGeometry>
        </mxCell>
        <mxCell id="bt1sG3O_FPqmAOzxdh9N-33" style="edgeStyle=orthogonalEdgeStyle;rounded=0;orthogonalLoop=1;jettySize=auto;html=1;exitX=0.5;exitY=1;exitDx=0;exitDy=0;entryX=0.5;entryY=0;entryDx=0;entryDy=0;" edge="1" parent="WIyWlLk6GJQsqaUBKTNV-1" source="WIyWlLk6GJQsqaUBKTNV-3" target="bt1sG3O_FPqmAOzxdh9N-15">
          <mxGeometry relative="1" as="geometry" />
        </mxCell>
        <mxCell id="WIyWlLk6GJQsqaUBKTNV-3" value="register patient" style="rounded=1;whiteSpace=wrap;html=1;fontSize=12;glass=0;strokeWidth=1;shadow=0;" parent="WIyWlLk6GJQsqaUBKTNV-1" vertex="1">
          <mxGeometry x="520" y="500" width="120" height="40" as="geometry" />
        </mxCell>
        <mxCell id="bt1sG3O_FPqmAOzxdh9N-5" style="edgeStyle=orthogonalEdgeStyle;rounded=0;orthogonalLoop=1;jettySize=auto;html=1;" edge="1" parent="WIyWlLk6GJQsqaUBKTNV-1">
          <mxGeometry relative="1" as="geometry">
            <mxPoint x="330" y="715" as="targetPoint" />
            <mxPoint x="362" y="625" as="sourcePoint" />
          </mxGeometry>
        </mxCell>
        <mxCell id="bt1sG3O_FPqmAOzxdh9N-6" style="edgeStyle=orthogonalEdgeStyle;rounded=0;orthogonalLoop=1;jettySize=auto;html=1;exitX=1;exitY=0.5;exitDx=0;exitDy=0;" edge="1" parent="WIyWlLk6GJQsqaUBKTNV-1">
          <mxGeometry relative="1" as="geometry">
            <mxPoint x="510" y="715" as="targetPoint" />
            <mxPoint x="458" y="625" as="sourcePoint" />
          </mxGeometry>
        </mxCell>
        <mxCell id="bt1sG3O_FPqmAOzxdh9N-1" value="Nurse consultation" style="rounded=1;whiteSpace=wrap;html=1;" vertex="1" parent="WIyWlLk6GJQsqaUBKTNV-1">
          <mxGeometry x="450" y="715" width="120" height="60" as="geometry" />
        </mxCell>
        <mxCell id="bt1sG3O_FPqmAOzxdh9N-7" value="type&lt;br&gt;nurse" style="text;html=1;align=center;verticalAlign=middle;resizable=0;points=[];autosize=1;strokeColor=none;fillColor=none;" vertex="1" parent="WIyWlLk6GJQsqaUBKTNV-1">
          <mxGeometry x="510" y="660" width="50" height="30" as="geometry" />
        </mxCell>
        <mxCell id="bt1sG3O_FPqmAOzxdh9N-8" value="type doctor" style="text;html=1;align=center;verticalAlign=middle;resizable=0;points=[];autosize=1;strokeColor=none;fillColor=none;" vertex="1" parent="WIyWlLk6GJQsqaUBKTNV-1">
          <mxGeometry x="260" y="675" width="70" height="20" as="geometry" />
        </mxCell>
        <mxCell id="bt1sG3O_FPqmAOzxdh9N-9" value="" style="rounded=1;whiteSpace=wrap;html=1;" vertex="1" parent="WIyWlLk6GJQsqaUBKTNV-1">
          <mxGeometry x="270" y="715" width="120" height="60" as="geometry" />
        </mxCell>
        <mxCell id="bt1sG3O_FPqmAOzxdh9N-16" style="edgeStyle=orthogonalEdgeStyle;rounded=0;orthogonalLoop=1;jettySize=auto;html=1;exitX=0.5;exitY=1;exitDx=0;exitDy=0;" edge="1" parent="WIyWlLk6GJQsqaUBKTNV-1" source="bt1sG3O_FPqmAOzxdh9N-11" target="bt1sG3O_FPqmAOzxdh9N-17">
          <mxGeometry relative="1" as="geometry">
            <mxPoint x="410" y="625" as="targetPoint" />
          </mxGeometry>
        </mxCell>
        <mxCell id="bt1sG3O_FPqmAOzxdh9N-11" value="request appointment for existing patient" style="rounded=1;whiteSpace=wrap;html=1;" vertex="1" parent="WIyWlLk6GJQsqaUBKTNV-1">
          <mxGeometry x="335" y="495" width="150" height="50" as="geometry" />
        </mxCell>
        <mxCell id="bt1sG3O_FPqmAOzxdh9N-22" style="edgeStyle=orthogonalEdgeStyle;rounded=0;orthogonalLoop=1;jettySize=auto;html=1;exitX=0.5;exitY=1;exitDx=0;exitDy=0;" edge="1" parent="WIyWlLk6GJQsqaUBKTNV-1" source="bt1sG3O_FPqmAOzxdh9N-12" target="bt1sG3O_FPqmAOzxdh9N-23">
          <mxGeometry relative="1" as="geometry">
            <mxPoint x="190" y="585" as="targetPoint" />
          </mxGeometry>
        </mxCell>
        <mxCell id="bt1sG3O_FPqmAOzxdh9N-12" value="request repeat prescription for existing patient" style="rounded=1;whiteSpace=wrap;html=1;" vertex="1" parent="WIyWlLk6GJQsqaUBKTNV-1">
          <mxGeometry x="90" y="490" width="200" height="60" as="geometry" />
        </mxCell>
        <mxCell id="bt1sG3O_FPqmAOzxdh9N-15" value="patient details" style="shape=internalStorage;whiteSpace=wrap;html=1;dx=15;dy=15;rounded=1;arcSize=8;strokeWidth=2;" vertex="1" parent="WIyWlLk6GJQsqaUBKTNV-1">
          <mxGeometry x="590" y="620" width="125" height="70" as="geometry" />
        </mxCell>
        <mxCell id="bt1sG3O_FPqmAOzxdh9N-17" value="choose&amp;nbsp;&lt;br&gt;appointment&lt;br&gt;type" style="strokeWidth=2;html=1;shape=mxgraph.flowchart.decision;whiteSpace=wrap;rounded=1;" vertex="1" parent="WIyWlLk6GJQsqaUBKTNV-1">
          <mxGeometry x="360" y="575" width="100" height="100" as="geometry" />
        </mxCell>
        <mxCell id="bt1sG3O_FPqmAOzxdh9N-20" style="edgeStyle=orthogonalEdgeStyle;rounded=0;orthogonalLoop=1;jettySize=auto;html=1;exitX=0;exitY=0.5;exitDx=0;exitDy=0;exitPerimeter=0;" edge="1" parent="WIyWlLk6GJQsqaUBKTNV-1" target="bt1sG3O_FPqmAOzxdh9N-12">
          <mxGeometry relative="1" as="geometry">
            <mxPoint x="190" y="415" as="targetPoint" />
            <mxPoint x="370" y="395" as="sourcePoint" />
          </mxGeometry>
        </mxCell>
        <mxCell id="bt1sG3O_FPqmAOzxdh9N-21" style="edgeStyle=orthogonalEdgeStyle;rounded=0;orthogonalLoop=1;jettySize=auto;html=1;" edge="1" parent="WIyWlLk6GJQsqaUBKTNV-1" target="bt1sG3O_FPqmAOzxdh9N-11">
          <mxGeometry relative="1" as="geometry">
            <mxPoint x="420" y="445" as="sourcePoint" />
          </mxGeometry>
        </mxCell>
        <mxCell id="bt1sG3O_FPqmAOzxdh9N-19" value="return" style="text;html=1;align=center;verticalAlign=middle;resizable=0;points=[];autosize=1;strokeColor=none;fillColor=none;" vertex="1" parent="WIyWlLk6GJQsqaUBKTNV-1">
          <mxGeometry x="530" y="415" width="50" height="20" as="geometry" />
        </mxCell>
        <mxCell id="bt1sG3O_FPqmAOzxdh9N-24" style="edgeStyle=orthogonalEdgeStyle;rounded=0;orthogonalLoop=1;jettySize=auto;html=1;exitX=0.5;exitY=1;exitDx=0;exitDy=0;exitPerimeter=0;" edge="1" parent="WIyWlLk6GJQsqaUBKTNV-1" source="bt1sG3O_FPqmAOzxdh9N-23">
          <mxGeometry relative="1" as="geometry">
            <mxPoint x="190" y="765" as="targetPoint" />
          </mxGeometry>
        </mxCell>
        <mxCell id="bt1sG3O_FPqmAOzxdh9N-27" style="edgeStyle=orthogonalEdgeStyle;rounded=0;orthogonalLoop=1;jettySize=auto;html=1;exitX=0;exitY=0.5;exitDx=0;exitDy=0;exitPerimeter=0;" edge="1" parent="WIyWlLk6GJQsqaUBKTNV-1" source="bt1sG3O_FPqmAOzxdh9N-23">
          <mxGeometry relative="1" as="geometry">
            <mxPoint x="370" y="395" as="targetPoint" />
            <Array as="points">
              <mxPoint x="70" y="635" />
              <mxPoint x="70" y="395" />
            </Array>
          </mxGeometry>
        </mxCell>
        <mxCell id="bt1sG3O_FPqmAOzxdh9N-23" value="check for&lt;br&gt;prescriptions" style="strokeWidth=2;html=1;shape=mxgraph.flowchart.decision;whiteSpace=wrap;rounded=1;" vertex="1" parent="WIyWlLk6GJQsqaUBKTNV-1">
          <mxGeometry x="140" y="585" width="100" height="100" as="geometry" />
        </mxCell>
        <mxCell id="bt1sG3O_FPqmAOzxdh9N-25" value="yes" style="text;html=1;align=center;verticalAlign=middle;resizable=0;points=[];autosize=1;strokeColor=none;fillColor=none;" vertex="1" parent="WIyWlLk6GJQsqaUBKTNV-1">
          <mxGeometry x="160" y="705" width="30" height="20" as="geometry" />
        </mxCell>
        <mxCell id="bt1sG3O_FPqmAOzxdh9N-29" style="edgeStyle=orthogonalEdgeStyle;rounded=0;orthogonalLoop=1;jettySize=auto;html=1;exitX=0;exitY=0.5;exitDx=0;exitDy=0;" edge="1" parent="WIyWlLk6GJQsqaUBKTNV-1" source="bt1sG3O_FPqmAOzxdh9N-26">
          <mxGeometry relative="1" as="geometry">
            <mxPoint x="370" y="395" as="targetPoint" />
            <Array as="points">
              <mxPoint x="70" y="795" />
              <mxPoint x="70" y="395" />
            </Array>
          </mxGeometry>
        </mxCell>
        <mxCell id="bt1sG3O_FPqmAOzxdh9N-30" value="return" style="edgeLabel;html=1;align=center;verticalAlign=middle;resizable=0;points=[];" vertex="1" connectable="0" parent="bt1sG3O_FPqmAOzxdh9N-29">
          <mxGeometry x="0.2748" y="9" relative="1" as="geometry">
            <mxPoint x="24" y="-1" as="offset" />
          </mxGeometry>
        </mxCell>
        <mxCell id="bt1sG3O_FPqmAOzxdh9N-26" value="print prescription" style="rounded=1;whiteSpace=wrap;html=1;" vertex="1" parent="WIyWlLk6GJQsqaUBKTNV-1">
          <mxGeometry x="130" y="765" width="120" height="60" as="geometry" />
        </mxCell>
        <mxCell id="bt1sG3O_FPqmAOzxdh9N-28" value="no" style="text;html=1;align=center;verticalAlign=middle;resizable=0;points=[];autosize=1;strokeColor=none;fillColor=none;" vertex="1" parent="WIyWlLk6GJQsqaUBKTNV-1">
          <mxGeometry x="100" y="615" width="30" height="20" as="geometry" />
        </mxCell>
        <mxCell id="bt1sG3O_FPqmAOzxdh9N-34" value="store" style="text;html=1;align=center;verticalAlign=middle;resizable=0;points=[];autosize=1;strokeColor=none;fillColor=none;" vertex="1" parent="WIyWlLk6GJQsqaUBKTNV-1">
          <mxGeometry x="610" y="555" width="40" height="20" as="geometry" />
        </mxCell>
        <mxCell id="bt1sG3O_FPqmAOzxdh9N-36" value="start menu&amp;nbsp;&lt;br&gt;select user" style="strokeWidth=2;html=1;shape=mxgraph.flowchart.start_2;whiteSpace=wrap;rounded=1;" vertex="1" parent="WIyWlLk6GJQsqaUBKTNV-1">
          <mxGeometry x="370" y="100" width="100" height="100" as="geometry" />
        </mxCell>
        <mxCell id="bt1sG3O_FPqmAOzxdh9N-37" value="" style="strokeWidth=2;html=1;shape=mxgraph.flowchart.annotation_2;align=left;labelPosition=right;pointerEvents=1;rounded=1;rotation=90;" vertex="1" parent="WIyWlLk6GJQsqaUBKTNV-1">
          <mxGeometry x="392.5" y="26.41" width="55" height="402.19" as="geometry" />
        </mxCell>
        <mxCell id="bt1sG3O_FPqmAOzxdh9N-39" value="" style="rounded=1;whiteSpace=wrap;html=1;" vertex="1" parent="WIyWlLk6GJQsqaUBKTNV-1">
          <mxGeometry x="370" y="375" width="90" height="75" as="geometry" />
        </mxCell>
      </root>
    </mxGraphModel>
  </diagram>
</mxfile>
